<svg width="155" height="69" viewBox="0 0 155 69" fill="none" xmlns="http://www.w3.org/2000/svg">
<path d="M27.2031 41C27.0156 40.625 26.8633 39.957 26.7461 38.9961C25.2344 40.5664 23.4297 41.3516 21.332 41.3516C19.457 41.3516 17.916 40.8242 16.709 39.7695C15.5137 38.7031 14.916 37.3555 14.916 35.7266C14.916 33.7461 15.666 32.2109 17.166 31.1211C18.6777 30.0195 20.7988 29.4688 23.5293 29.4688H26.6934V27.9746C26.6934 26.8379 26.3535 25.9355 25.6738 25.2676C24.9941 24.5879 23.9922 24.248 22.668 24.248C21.5078 24.248 20.5352 24.541 19.75 25.127C18.9648 25.7129 18.5723 26.4219 18.5723 27.2539H15.3027C15.3027 26.3047 15.6367 25.3906 16.3047 24.5117C16.9844 23.6211 17.8984 22.918 19.0469 22.4023C20.207 21.8867 21.4785 21.6289 22.8613 21.6289C25.0527 21.6289 26.7695 22.1797 28.0117 23.2812C29.2539 24.3711 29.8984 25.877 29.9453 27.7988V36.5527C29.9453 38.2988 30.168 39.6875 30.6133 40.7188V41H27.2031ZM21.8066 38.5215C22.8262 38.5215 23.793 38.2578 24.707 37.7305C25.6211 37.2031 26.2832 36.5176 26.6934 35.6738V31.7715H24.1445C20.1602 31.7715 18.168 32.9375 18.168 35.2695C18.168 36.2891 18.5078 37.0859 19.1875 37.6602C19.8672 38.2344 20.7402 38.5215 21.8066 38.5215ZM46.1172 35.9551C46.1172 35.0762 45.7832 34.3965 45.1152 33.916C44.459 33.4238 43.3047 33.002 41.6523 32.6504C40.0117 32.2988 38.7051 31.877 37.7324 31.3848C36.7715 30.8926 36.0566 30.3066 35.5879 29.627C35.1309 28.9473 34.9023 28.1387 34.9023 27.2012C34.9023 25.6426 35.5586 24.3242 36.8711 23.2461C38.1953 22.168 39.8828 21.6289 41.9336 21.6289C44.0898 21.6289 45.8359 22.1855 47.1719 23.2988C48.5195 24.4121 49.1934 25.8359 49.1934 27.5703H45.9238C45.9238 26.6797 45.543 25.9121 44.7812 25.2676C44.0312 24.623 43.082 24.3008 41.9336 24.3008C40.75 24.3008 39.8242 24.5586 39.1562 25.0742C38.4883 25.5898 38.1543 26.2637 38.1543 27.0957C38.1543 27.8809 38.4648 28.4727 39.0859 28.8711C39.707 29.2695 40.8262 29.6504 42.4434 30.0137C44.0723 30.377 45.3906 30.8105 46.3984 31.3145C47.4062 31.8184 48.1504 32.4277 48.6309 33.1426C49.123 33.8457 49.3691 34.707 49.3691 35.7266C49.3691 37.4258 48.6895 38.791 47.3301 39.8223C45.9707 40.8418 44.207 41.3516 42.0391 41.3516C40.5156 41.3516 39.168 41.082 37.9961 40.543C36.8242 40.0039 35.9043 39.2539 35.2363 38.293C34.5801 37.3203 34.252 36.2715 34.252 35.1465H37.5039C37.5625 36.2363 37.9961 37.1035 38.8047 37.748C39.625 38.3809 40.7031 38.6973 42.0391 38.6973C43.2695 38.6973 44.2539 38.4512 44.9922 37.959C45.7422 37.4551 46.1172 36.7871 46.1172 35.9551ZM58.9141 32.1934L56.875 34.3203V41H53.623V14H56.875V30.3301L58.6152 28.2383L64.5391 21.9805H68.4941L61.0938 29.9258L69.3555 41H65.541L58.9141 32.1934Z" fill="black"/>
<path d="M84.5195 21.9805L84.6074 24.0898C86.002 22.4492 87.8828 21.6289 90.25 21.6289C92.9102 21.6289 94.7207 22.6484 95.6816 24.6875C96.3145 23.7734 97.1348 23.0352 98.1426 22.4727C99.1621 21.9102 100.363 21.6289 101.746 21.6289C105.918 21.6289 108.039 23.8379 108.109 28.2559V41H104.857V28.4492C104.857 27.0898 104.547 26.0762 103.926 25.4082C103.305 24.7285 102.262 24.3887 100.797 24.3887C99.5898 24.3887 98.5879 24.752 97.791 25.4785C96.9941 26.1934 96.5312 27.1602 96.4023 28.3789V41H93.1328V28.5371C93.1328 25.7715 91.7793 24.3887 89.0723 24.3887C86.9395 24.3887 85.4805 25.2969 84.6953 27.1133V41H81.4434V21.9805H84.5195ZM120.924 41.3516C118.346 41.3516 116.248 40.5078 114.631 38.8203C113.014 37.1211 112.205 34.8535 112.205 32.0176V31.4199C112.205 29.5332 112.562 27.8516 113.277 26.375C114.004 24.8867 115.012 23.7266 116.301 22.8945C117.602 22.0508 119.008 21.6289 120.52 21.6289C122.992 21.6289 124.914 22.4434 126.285 24.0723C127.656 25.7012 128.342 28.0332 128.342 31.0684V32.4219H115.457C115.504 34.2969 116.049 35.8145 117.092 36.9746C118.146 38.123 119.482 38.6973 121.1 38.6973C122.248 38.6973 123.221 38.4629 124.018 37.9941C124.814 37.5254 125.512 36.9043 126.109 36.1309L128.096 37.6777C126.502 40.127 124.111 41.3516 120.924 41.3516ZM120.52 24.3008C119.207 24.3008 118.105 24.7812 117.215 25.7422C116.324 26.6914 115.773 28.0273 115.562 29.75H125.09V29.5039C124.996 27.8516 124.551 26.5742 123.754 25.6719C122.957 24.7578 121.879 24.3008 120.52 24.3008Z" fill="#EC6300"/>
<path d="M47.4 55C60.41 55 66.9166 55 70.9566 51.4107C75 47.8246 75 42.0487 75 30.5C75 18.9513 75 13.1754 70.9566 9.58925C66.9166 6 60.41 6 47.4 6H33.6C20.5901 6 14.0833 6 10.0434 9.58925C6 13.1754 6 18.9513 6 30.5C6 42.0487 6 47.8246 10.0434 51.4107C12.2962 53.4136 15.315 54.2987 19.8 54.6876" stroke="#EC6300" stroke-width="4" stroke-linecap="round" stroke-linejoin="round"/>
<path d="M48 55.5348C43.6618 55.5348 38.8814 57.0464 34.5186 58.9964C27.506 62.1315 23.9996 63.7006 22.2728 62.6999C20.5459 61.7022 20.8723 58.6034 21.5287 52.4088L21.6761 51" stroke="#EC6300" stroke-width="4" stroke-linecap="round"/>
</svg>
